<svg width="100" height="101" viewBox="0 0 100 101" fill="none" xmlns="http://www.w3.org/2000/svg">
<path d="M37.6053 67.058H45.9246V33.7808H37.6053V67.058ZM50.0842 8.82297C27.123 8.82297 8.48779 27.4582 8.48779 50.4194C8.48779 73.3807 27.123 92.0159 50.0842 92.0159C73.0455 92.0159 91.6807 73.3807 91.6807 50.4194C91.6807 27.4582 73.0455 8.82297 50.0842 8.82297ZM50.0842 83.6966C31.7402 83.6966 16.8071 68.7635 16.8071 50.4194C16.8071 32.0754 31.7402 17.1423 50.0842 17.1423C68.4283 17.1423 83.3614 32.0754 83.3614 50.4194C83.3614 68.7635 68.4283 83.6966 50.0842 83.6966ZM54.2439 67.058H62.5632V33.7808H54.2439V67.058Z" fill="#3DC185"/>
</svg>
