<svg width="100" height="101" viewBox="0 0 100 101" fill="none" xmlns="http://www.w3.org/2000/svg">
<path d="M41.5964 69.1378L66.5543 50.4194L41.5964 31.701V69.1378ZM49.9157 8.82297C26.9545 8.82297 8.31927 27.4582 8.31927 50.4194C8.31927 73.3807 26.9545 92.0159 49.9157 92.0159C72.877 92.0159 91.5122 73.3807 91.5122 50.4194C91.5122 27.4582 72.877 8.82297 49.9157 8.82297ZM49.9157 83.6966C31.5717 83.6966 16.6386 68.7635 16.6386 50.4194C16.6386 32.0754 31.5717 17.1423 49.9157 17.1423C68.2598 17.1423 83.1929 32.0754 83.1929 50.4194C83.1929 68.7635 68.2598 83.6966 49.9157 83.6966Z" fill="#D470D9"/>
</svg>
